<svg id="MX" xmlns="http://www.w3.org/2000/svg" viewBox="0 0 800 703"><defs><style>.cls-1{fill:none;stroke:#231f20;stroke-miterlimit:10;stroke-width:4px;}.cls-2{fill:#231f20;}</style></defs><title>Logo</title><path class="cls-1" d="M192.49,79C207.07,76.62,221,74.14,235,72.1c54.77-8,105.72-27.21,154.59-52.44,6.42-3.32,11.44-3.33,17.87-.06,42,21.34,85.2,39.43,131.76,48.2,19.35,3.65,38.82,6.72,58.22,10.08,2.17.38,4.29,1,6,1.36,0,9.9.45,19.41-.08,28.87-2,36.49-2.13,73.28-7.09,109.38-12.08,88-48.55,164.81-112.85,227.06C460.18,467,435.5,488,405.87,502.23c-6.09,2.91-11,2.7-16.78-.4-35.39-19-65.64-44.6-92.41-74.05-45.18-49.68-74.05-108-89.63-173.35-7.24-30.38-10-61.14-11.64-92.1-1.32-24.34-2-48.71-2.9-73.08C192.39,86.18,192.49,83.09,192.49,79Z"/><path class="cls-1" d="M210.09,94.55c13.32-2.17,26.07-4.44,38.87-6.3C299,81,345.63,63.36,390.31,40.29c5.87-3,10.46-3,16.34,0C445,59.75,484.56,76.29,527.13,84.32c17.7,3.33,35.5,6.14,53.25,9.21,2,.35,3.92.89,5.47,1.24,0,9.06.41,17.76-.08,26.41-1.86,33.36-1.94,67-6.48,100-11,80.46-44.39,150.7-103.19,207.62-21.24,20.57-43.81,39.75-70.91,52.74-5.56,2.67-10.05,2.48-15.33-.36-32.37-17.36-60-40.78-84.51-67.71C264,368.05,237.64,314.7,223.4,255c-6.62-27.78-9.11-55.91-10.64-84.21-1.21-22.26-1.82-44.55-2.66-66.83C210,101.12,210.09,98.29,210.09,94.55Z"/><path class="cls-2" d="M376.11,396.7c-.36,4.4-.16,8.86-.23,14.14,9.12-7,17.35-13.18,25.3-19.64,5.56-4.51,7.21-10.87,6.46-17.73-.71-6.48-1.94-12.91-3.19-21,9.61,12.9,21.06,20.52,36.65,19.85,14.65-.63,27.54-6.21,41.3-14.28-18.33-.77-30.93-8.82-40.09-23.08,14.09,8,28.45,5.66,43.06,2.51,11.42-2.46,13.82-1.76,33.9,4.06.62-9.77-3.5-16.49-10.93-21-8.88-5.37-18.34-9.79-27.19-15.23-7.84-4.82-15.18-10.46-22.4-15.5L431.4,309.25c-.38-.52-.75-1-1.13-1.55,5.09-4.12,10.32-8.06,15.23-12.38,8.6-7.57,15.59-16.39,19.26-27.44,2.13-6.41,1.51-12.39-3.31-17.88-15.3,15-34.87,17.64-54.52,20.07-18,2.22-36,3.88-53.87,6.91-14.75,2.52-27.6,9.19-34.32,23.71-2,4.41-2.79,9.4-4.28,14.63-7.77.94-16.58,1.47-25.16,3.18-13,2.59-15.58,9.56-9.3,19.73,7.73-1.43,14.87-4,22-3.84,22.27.41,43.55,5.38,62.49,17.74,10.64,6.94,15.07,17.13,13.63,29.76C377.53,386.84,376.52,391.74,376.11,396.7Zm-56-81.91,29-14.52C350,312.17,333.89,319.92,320.11,314.79Z"/><path class="cls-2" d="M249.78,120.79c0,4.18-3.08,7.3-7.78,7.3h-7.49v12.24H232.3V113.06h9.94A7.5,7.5,0,0,1,249.78,120.79Zm-2.12,0a5.6,5.6,0,0,0-5.8-5.72h-7.35v11.09h7.68A5.19,5.19,0,0,0,247.66,120.75Z"/><path class="cls-2" d="M266.58,128.09h-6.72v12.24h-2.21V113.06h9.94a7.5,7.5,0,0,1,7.54,7.73,7.07,7.07,0,0,1-6.24,7.2l7.53,12.34h-2.35Zm-6.72-2h7.68a5.19,5.19,0,0,0,5.47-5.37,5.6,5.6,0,0,0-5.8-5.72h-7.35Z"/><path class="cls-2" d="M280.22,126.75c0-7.64,5.76-13.83,12.91-13.83s13,6.19,13,13.83-5.81,13.82-13,13.82S280.22,134.38,280.22,126.75Zm23.57,0c0-6.44-4.76-11.62-10.66-11.62s-10.66,5.18-10.66,11.62,4.76,11.66,10.66,11.66S303.79,133.18,303.79,126.75Z"/><path class="cls-2" d="M313.82,130.87V113.06H316v18c0,3.84,3.6,7.2,8.11,7.2s8-3.41,8-7.2v-18h2.21v17.81c0,6.24-5.81,9.6-10.27,9.6C319.49,140.47,313.82,137.11,313.82,130.87Z"/><path class="cls-2" d="M364.9,126.6c0,7.78-5.85,13.73-13.2,13.73h-7.44V113.06h7.3C359.38,113.06,364.9,118.87,364.9,126.6Zm-2.25-.09c0-6.77-4.56-11.24-11.72-11.24h-4.46v22.85h4.7A11.19,11.19,0,0,0,362.65,126.51Z"/><path class="cls-2" d="M384.3,126.75c0-7.64,5.76-13.83,12.91-13.83s13,6.19,13,13.83-5.8,13.82-13,13.82S384.3,134.38,384.3,126.75Zm23.57,0c0-6.44-4.75-11.62-10.66-11.62s-10.65,5.18-10.65,11.62,4.75,11.66,10.65,11.66S407.87,133.18,407.87,126.75Z"/><path class="cls-2" d="M420.11,115.22v10.09h11.43v2H420.11v13h-2.2V113.06h16v2.16Z"/><path class="cls-2" d="M472.49,132.84a7.44,7.44,0,0,1-7.68,7.54l-10.13,0V113.06h9.22a7,7,0,0,1,7,7.11,7.11,7.11,0,0,1-2,4.75,5.38,5.38,0,0,1-1.54,1.15A7.13,7.13,0,0,1,472.49,132.84Zm-15.6-17.76v10.18h6.72a4.84,4.84,0,0,0,5.13-5,5.1,5.1,0,0,0-4.84-5.23Zm13.53,17.47a5.61,5.61,0,0,0-5.66-5.37h-7.87v11.13h7.87A5.65,5.65,0,0,0,470.42,132.55Z"/><path class="cls-2" d="M496.54,138.22v2.11H480.36V113.06h16v2.16H482.57v10.09H494v2H482.57v10.9Z"/><path class="cls-2" d="M503.5,113.06h2.16v27.27H503.5Z"/><path class="cls-2" d="M536.29,113.06v27.32h-1.92l-16.61-23.24v23.19h-2.21V113.06h1.83l16.7,23.33V113.06Z"/><path class="cls-2" d="M566.92,138a16.4,16.4,0,0,1-8.74,2.59c-8.3,0-14.25-6.19-14.25-13.78a13.79,13.79,0,0,1,13.77-13.87,12.12,12.12,0,0,1,8.5,3.31l-1.2,1.44a11.35,11.35,0,0,0-7.3-2.64,11.71,11.71,0,0,0-11.61,11.72c0,5.76,4.13,11.71,12.33,11.71a13.78,13.78,0,0,0,6.53-1.54v-8.83h-6.43v-1.92h8.4Z"/><path class="cls-2" d="M338.74,161.07v27.27h-2.16l-.05-23.14L326.3,179.51h-1.53l-10.28-14.4.05,23.23h-2.21V161.07h1.78L325.53,177,337,161.07Z"/><path class="cls-2" d="M364.81,186.23v2.11H348.63V161.07h16v2.16H350.84v10.08h11.42v2H350.84v10.9Z"/><path class="cls-2" d="M389.72,188.34l-9.36-12-9.41,12h-2.83l10.8-13.73-10.61-13.54h2.79l9.26,11.76,9.22-11.76h2.83l-10.66,13.54,10.8,13.73Z"/><path class="cls-2" d="M398.8,161.07H401v27.27H398.8Z"/><path class="cls-2" d="M408.59,174.75a13.85,13.85,0,0,1,13.78-13.82,11.7,11.7,0,0,1,8.45,3.46l-1.16,1.29a11.09,11.09,0,0,0-7.24-2.64,11.72,11.72,0,0,0-.05,23.43,11,11,0,0,0,7.29-2.64l1.16,1.34a11.59,11.59,0,0,1-8.4,3.41A13.83,13.83,0,0,1,408.59,174.75Z"/><path class="cls-2" d="M450.93,179.12H439.7l-3.55,9.22h-2.26l10.47-27.27h1.92l10.46,27.27h-2.3Zm-.76-2-4.85-12.63-4.85,12.63Z"/><path class="cls-2" d="M483.72,161.07v27.32H481.8l-16.61-23.24v23.19H463V161.07h1.83l16.7,23.33V161.07Z"/><path class="cls-2" d="M457.41,601.24s-39.59-30,20.17-114.74c0,0,28.82,95-17.72,115Z"/><path class="cls-2" d="M465.73,621s22.15-44.42,116.49-1.31c0,0-88,45.82-116.29,3.77Z"/><path class="cls-2" d="M522.51,553.53s-39.58-29.95,20.18-114.74c0,0,28.82,95-17.72,115Z"/><path class="cls-2" d="M536.39,573.29s13.17-47.86,114.05-23.73c0,0-77.54,61.92-113.38,26.11Z"/><path class="cls-2" d="M585.29,498.77s-38.45-25.5,12.1-107.61c0,0,32.21,86.44-9.81,107.71Z"/><path class="cls-2" d="M603.6,511.91s12.18-44.51,106-22.22c0,0-72,57.66-105.36,24.42Z"/><path class="cls-2" d="M638.17,443.64s-36.2-15.78-5.79-92.5c0,0,40,68.07,7.74,92.24Z"/><path class="cls-2" d="M653.94,452.31s6.08-39,88-29.09c0,0-55.67,56-87.25,30.91Z"/><path class="cls-2" d="M674,388.29s-35.84-5.73-26.39-81c0,0,51.22,51.38,28.06,80.3Z"/><path class="cls-2" d="M690.41,392.31s5.48-35.88,80.79-27c0,0-51,51.59-80.1,28.64Z"/><path class="cls-2" d="M694.48,334.8s-32.77-7.46-19.5-76.42c0,0,44.22,50.57,21.08,75.89Z"/><path class="cls-2" d="M712.45,335.63s-4.05-33.36,65.33-44.18c0,0-32.65,58.71-64.3,45.49Z"/><path class="cls-2" d="M710.65,271.82s-32.37,1.32-37.42-66.21c0,0,53.91,35.91,38.76,65.32Z"/><path class="cls-2" d="M711.38,201.29S680.44,210.94,658.1,147c0,0,61.37,20.74,54.34,53.07Z"/><path class="cls-2" d="M694.82,137.81s-26.7,18.37-66.94-36.09c0,0,64.75,1.67,67.6,34.63Z"/><path class="cls-2" d="M709.33,129.79s-27.44-10.7-7-68.75c0,0,31.79,49.54,8.47,68.5Z"/><path class="cls-2" d="M727.92,196.09s-21.31-20.32,19.63-66.26c0,0,10.58,57.91-18.21,66.58Z"/><path class="cls-2" d="M726.52,269.78S713.33,243.45,767.37,214c0,0-9.59,58.08-39.61,56.53Z"/><path class="cls-2" d="M674.75,87.23S646,95.38,627,36c0,0,56,20.57,48.75,50.15Z"/><path class="cls-2" d="M322.3,676.3c9.08-3.7,18.18-7.78,27.17-11.92s17.95-8.47,26.83-12.9q26.64-13.31,52.53-28.07a941,941,0,0,0,99.65-65.14c31.7-23.88,61.74-50.09,88.54-79.36a454.26,454.26,0,0,0,37.27-46.33c5.64-8.15,11-16.47,16-25s9.6-17.34,13.85-26.3l0-.05,0-.05c2.92-5.4,5.56-11.08,8-16.76,1.26-2.84,2.42-5.73,3.61-8.6s2.3-5.78,3.34-8.72a349.17,349.17,0,0,0,11-35.66,336,336,0,0,0,7.08-36.67,290.29,290.29,0,0,0,2.75-37.26c.12-3.12,0-6.23-.07-9.35l-.09-4.67c0-1.56-.18-3.11-.26-4.67-.22-3.1-.37-6.22-.64-9.32l-1-9.3-.26-2.32-.37-2.31-.74-4.62-.73-4.62c-.23-1.54-.62-3.05-.92-4.58l-1.94-9.15-2.41-9c-.42-1.5-.75-3-1.25-4.5L708,154.57l-1.44-4.46c-.5-1.47-.92-3-1.52-4.42-2.28-5.81-4.36-11.7-7.08-17.33-4.95-11.48-11.24-22.3-17.75-33,6.61,10.6,13,21.37,18.09,32.81,2.78,5.61,4.93,11.49,7.27,17.29.62,1.44,1.06,2.95,1.57,4.42l1.49,4.45,1.5,4.45c.51,1.48.86,3,1.3,4.51l2.5,9,2,9.17c.32,1.53.73,3.05,1,4.59l.79,4.63.79,4.63.39,2.31.28,2.33,1.13,9.33c.31,3.12.49,6.24.74,9.36.1,1.57.28,3.13.31,4.69l.14,4.7c.08,3.13.26,6.26.17,9.39A293.73,293.73,0,0,1,719.24,275a336.41,336.41,0,0,1-6.76,37,350.72,350.72,0,0,1-10.76,36c-1,3-2.18,5.88-3.28,8.82s-2.31,5.83-3.55,8.71c-2.47,5.79-5,11.48-8,17.11l0-.1q-6.3,13.64-13.72,26.69c-5,8.7-10.32,17.15-15.93,25.44a459.29,459.29,0,0,1-37.12,47.1c-26.72,29.79-56.72,56.49-88.38,80.85a946.47,946.47,0,0,1-99.63,66.57Q406.28,644.28,379.57,658q-13.35,6.82-26.89,13.27c-9.06,4.28-18.1,8.44-27.43,12.36Z"/><path class="cls-2" d="M341.61,601.24s39.58-30-20.17-114.74c0,0-28.83,95,17.71,115Z"/><path class="cls-2" d="M333.28,621s-22.15-44.42-116.49-1.31c0,0,88,45.82,116.29,3.77Z"/><path class="cls-2" d="M276.5,553.53s39.58-29.95-20.17-114.74c0,0-28.82,95,17.72,115Z"/><path class="cls-2" d="M262.63,573.29s-13.17-47.86-114.06-23.73c0,0,77.54,61.92,113.39,26.11Z"/><path class="cls-2" d="M213.73,498.77s38.45-25.5-12.11-107.61c0,0-32.21,86.44,9.82,107.71Z"/><path class="cls-2" d="M195.41,511.91s-12.18-44.51-106-22.22c0,0,72,57.66,105.36,24.42Z"/><path class="cls-2" d="M160.84,443.64s36.2-15.78,5.79-92.5c0,0-40,68.07-7.73,92.24Z"/><path class="cls-2" d="M145.07,452.31s-6.07-39-88-29.09c0,0,55.68,56,87.25,30.91Z"/><path class="cls-2" d="M125.06,388.29s35.84-5.73,26.39-81c0,0-51.21,51.38-28.06,80.3Z"/><path class="cls-2" d="M108.6,392.31s-5.47-35.88-80.79-27c0,0,51,51.59,80.1,28.64Z"/><path class="cls-2" d="M104.53,334.8s32.77-7.46,19.5-76.42c0,0-44.22,50.57-21.08,75.89Z"/><path class="cls-2" d="M86.56,335.63s4.06-33.36-65.33-44.18c0,0,32.65,58.71,64.3,45.49Z"/><path class="cls-2" d="M88.36,271.82s32.38,1.32,37.43-66.21c0,0-53.92,35.91-38.77,65.32Z"/><path class="cls-2" d="M87.64,201.29s30.93,9.65,53.27-54.27c0,0-61.37,20.74-54.34,53.07Z"/><path class="cls-2" d="M104.2,137.81s26.69,18.37,66.93-36.09c0,0-64.75,1.67-67.6,34.63Z"/><path class="cls-2" d="M89.69,129.79s27.43-10.7,7-68.75c0,0-31.79,49.54-8.46,68.5Z"/><path class="cls-2" d="M71.1,196.09s21.3-20.32-19.64-66.26c0,0-10.57,57.91,18.21,66.58Z"/><path class="cls-2" d="M72.49,269.78S85.69,243.45,31.64,214c0,0,9.59,58.08,39.61,56.53Z"/><path class="cls-2" d="M124.27,87.23S153,95.38,172,36c0,0-56,20.57-48.75,50.15Z"/><path class="cls-2" d="M476.71,676.3c-9.08-3.7-18.18-7.78-27.17-11.92s-17.94-8.47-26.83-12.9q-26.64-13.31-52.53-28.07a942,942,0,0,1-99.65-65.14c-31.69-23.88-61.74-50.09-88.53-79.36a454.35,454.35,0,0,1-37.28-46.33c-5.63-8.15-11-16.47-16-25s-9.61-17.34-13.86-26.3l0-.05,0-.05c-2.92-5.4-5.55-11.08-8-16.76-1.26-2.84-2.42-5.73-3.61-8.6s-2.3-5.78-3.34-8.72a351.63,351.63,0,0,1-11-35.66,333.72,333.72,0,0,1-7.09-36.67,292.1,292.1,0,0,1-2.75-37.26c-.12-3.12,0-6.23.07-9.35l.1-4.67c0-1.56.17-3.11.25-4.67.22-3.1.37-6.22.64-9.32l1-9.3.26-2.32.37-2.31.74-4.62.74-4.62c.23-1.54.62-3.05.92-4.58L86,172.57l2.4-9c.43-1.5.76-3,1.26-4.5l1.44-4.45,1.44-4.46c.5-1.47.93-3,1.52-4.42,2.29-5.81,4.37-11.7,7.09-17.33,4.94-11.48,11.24-22.3,17.74-33-6.61,10.6-13,21.37-18.09,32.81-2.78,5.61-4.92,11.49-7.27,17.29-.61,1.44-1.06,2.95-1.57,4.42l-1.49,4.45-1.49,4.45c-.52,1.48-.86,3-1.3,4.51l-2.51,9-2,9.17c-.32,1.53-.72,3.05-1,4.59l-.79,4.63-.78,4.63-.4,2.31L79.87,200l-1.13,9.33c-.31,3.12-.49,6.24-.74,9.36-.1,1.57-.28,3.13-.3,4.69l-.15,4.7c-.08,3.13-.25,6.26-.16,9.39A291.92,291.92,0,0,0,79.78,275a336.38,336.38,0,0,0,6.75,37,353.24,353.24,0,0,0,10.76,36c1,3,2.19,5.88,3.28,8.82s2.31,5.83,3.56,8.71c2.47,5.79,5,11.48,8,17.11l-.06-.1q6.3,13.64,13.72,26.69c5,8.7,10.33,17.15,15.93,25.44a458,458,0,0,0,37.13,47.1c26.72,29.79,56.71,56.49,88.38,80.85a947.38,947.38,0,0,0,99.62,66.57q25.89,15.11,52.58,28.78,13.35,6.82,26.89,13.27c9.06,4.28,18.1,8.44,27.43,12.36Z"/></svg>